<svg width="26" height="25" viewBox="0 0 26 25" fill="none" xmlns="http://www.w3.org/2000/svg">
<path d="M6.68176 3.34113L6.75891 3.74797H7.173H24.5894C24.9085 3.74797 25.2336 4.09279 25.1379 4.54714L23.0418 14.4953C22.9751 14.8116 22.7291 14.9919 22.4933 14.9919H9.49489H8.89117L9.00364 15.585L9.29386 17.1155L9.371 17.5224H9.7851H21.6871C22.0062 17.5224 22.3313 17.8672 22.2355 18.3215L21.9909 19.4826L21.9129 19.853L22.2482 20.0286C22.9059 20.373 23.3804 21.1148 23.3804 21.9965C23.3804 23.2358 22.4576 24.1748 21.3973 24.1748C20.337 24.1748 19.4142 23.2358 19.4142 21.9965C19.4142 21.3747 19.651 20.8204 20.0233 20.427L20.8217 19.5833H19.6602H10.3642H9.20251L10.001 20.427C10.3733 20.8204 10.6102 21.3747 10.6102 21.9965C10.6102 23.2358 9.68732 24.1748 8.62704 24.1748C7.56676 24.1748 6.64393 23.2358 6.64393 21.9965C6.64393 21.171 7.06059 20.4672 7.65486 20.0986L7.94648 19.9177L7.88254 19.5805L4.76766 3.15482L4.69051 2.74797H4.27641H1.17771C0.901079 2.74797 0.613525 2.49423 0.613525 2.10011V1.33486C0.613525 0.940736 0.901079 0.686996 1.17771 0.686996H5.72398C5.96369 0.686996 6.21385 0.873707 6.27532 1.19795L6.27533 1.19797L6.68176 3.34113Z" stroke="black"/>
</svg>
