<svg width="25" height="24" viewBox="0 0 25 24" fill="none" xmlns="http://www.w3.org/2000/svg">
<path d="M22.4326 14.0214L22.4326 14.0214C22.3682 14.3276 22.131 14.5 21.9061 14.5H9.18281H8.57924L8.69155 15.093L8.97562 16.593L9.05269 17H9.46689H21.117C21.4209 17 21.7362 17.3305 21.6434 17.7714L21.404 18.9093L21.3261 19.2795L21.6611 19.4551C22.3011 19.7906 22.7639 20.5141 22.7639 21.375C22.7639 22.5855 21.864 23.5 20.8333 23.5C19.8027 23.5 18.9028 22.5855 18.9028 21.375C18.9028 20.768 19.1337 20.2271 19.4963 19.8434L20.2935 19H19.1329H10.0337H8.87305L9.67032 19.8435C10.033 20.2271 10.2639 20.768 10.2639 21.375C10.2639 22.5855 9.36402 23.5 8.33333 23.5C7.30265 23.5 6.40278 22.5855 6.40278 21.375C6.40278 20.5691 6.80907 19.8826 7.38755 19.5233L7.67881 19.3424L7.61501 19.0055L4.56605 2.90696L4.48898 2.5H4.07478H1.04167C0.778044 2.5 0.5 2.25712 0.5 1.875V1.125C0.5 0.742883 0.778044 0.5 1.04167 0.5H5.49171C5.72025 0.5 5.96152 0.678551 6.02097 0.992552L6.02098 0.992577L6.4188 3.09305L6.49588 3.5H6.91007H23.9579C24.2618 3.5 24.5771 3.8305 24.4844 4.27136L22.4326 14.0214Z" fill="#FCFCFC" fill-opacity="0.78" stroke="black"/>
</svg>
