<svg width="24" height="24" viewBox="0 0 24 24" fill="none" xmlns="http://www.w3.org/2000/svg">
<path d="M16.1955 11.6464L15.842 12L16.1955 12.3536L23.0184 19.1764C23.0184 19.1764 23.0184 19.1765 23.0185 19.1765C23.6606 19.8193 23.6604 20.8602 23.0185 21.5021L21.5021 23.0185C20.8601 23.6605 19.8185 23.6605 19.1765 23.0185L12.3536 16.1955L12 15.842L11.6464 16.1955L4.82349 23.0185C4.18148 23.6605 3.13988 23.6605 2.49787 23.0185L0.981652 21.5023C0.981604 21.5022 0.981556 21.5022 0.981508 21.5021C0.33937 20.8593 0.339625 19.8184 0.981508 19.1765L7.80446 12.3536L8.15802 12L7.80446 11.6464L0.981652 4.82364C0.981629 4.82361 0.981606 4.82359 0.981584 4.82357C0.981558 4.82354 0.981533 4.82352 0.981508 4.82349C0.33937 4.18068 0.339625 3.13975 0.981508 2.49787L2.49773 0.981652C3.14053 0.33937 4.18156 0.339577 4.82349 0.981508L11.6464 7.80446L12 8.15802L12.3536 7.80446L19.1764 0.981652C19.1764 0.981604 19.1765 0.981556 19.1765 0.981508C19.8193 0.339371 20.8602 0.339625 21.5021 0.981508L23.0184 2.49773C23.0184 2.49778 23.0184 2.49782 23.0185 2.49787C23.6606 3.14069 23.6604 4.18161 23.0185 4.82349L16.1955 11.6464Z" stroke="black"/>
</svg>
