<svg width="31" height="30" viewBox="0 0 31 30" fill="none" xmlns="http://www.w3.org/2000/svg">
<path fill-rule="evenodd" clip-rule="evenodd" d="M16 10.3125C14.8397 10.3125 13.7269 10.8064 12.9064 11.6854C12.0859 12.5645 11.625 13.7568 11.625 15C11.625 16.2432 12.0859 17.4355 12.9064 18.3146C13.7269 19.1936 14.8397 19.6875 16 19.6875C17.1603 19.6875 18.2731 19.1936 19.0936 18.3146C19.9141 17.4355 20.375 16.2432 20.375 15C20.375 13.7568 19.9141 12.5645 19.0936 11.6854C18.2731 10.8064 17.1603 10.3125 16 10.3125ZM13.375 15C13.375 14.2541 13.6516 13.5387 14.1438 13.0113C14.6361 12.4838 15.3038 12.1875 16 12.1875C16.6962 12.1875 17.3639 12.4838 17.8562 13.0113C18.3484 13.5387 18.625 14.2541 18.625 15C18.625 15.7459 18.3484 16.4613 17.8562 16.9887C17.3639 17.5162 16.6962 17.8125 16 17.8125C15.3038 17.8125 14.6361 17.5162 14.1438 16.9887C13.6516 16.4613 13.375 15.7459 13.375 15Z" fill="black"/>
<path fill-rule="evenodd" clip-rule="evenodd" d="M15.9999 4.0625C10.7336 4.0625 7.18575 7.4425 5.12659 10.3087L5.09042 10.36C4.62375 11.0088 4.19559 11.605 3.90509 12.31C3.59359 13.0662 3.45825 13.89 3.45825 15C3.45825 16.11 3.59359 16.9338 3.90509 17.69C4.19675 18.395 4.62492 18.9925 5.09042 19.64L5.12775 19.6913C7.18575 22.5575 10.7336 25.9375 15.9999 25.9375C21.2663 25.9375 24.8141 22.5575 26.8733 19.6913L26.9094 19.64C27.3761 18.9925 27.8043 18.395 28.0948 17.69C28.4063 16.9338 28.5416 16.11 28.5416 15C28.5416 13.89 28.4063 13.0662 28.0948 12.31C27.8031 11.605 27.3749 11.0088 26.9094 10.36L26.8721 10.3087C24.8141 7.4425 21.2663 4.0625 15.9999 4.0625ZM6.51492 11.4525C8.41425 8.80625 11.5083 5.9375 15.9999 5.9375C20.4916 5.9375 23.5844 8.80625 25.4849 11.4525C25.9983 12.165 26.2969 12.59 26.4941 13.0675C26.6784 13.515 26.7916 14.0613 26.7916 15C26.7916 15.9387 26.6784 16.485 26.4941 16.9325C26.2969 17.41 25.9971 17.835 25.4861 18.5475C23.5833 21.1938 20.4916 24.0625 15.9999 24.0625C11.5083 24.0625 8.41542 21.1938 6.51492 18.5475C6.00159 17.835 5.70292 17.41 5.50575 16.9325C5.32142 16.485 5.20825 15.9387 5.20825 15C5.20825 14.0613 5.32142 13.515 5.50575 13.0675C5.70292 12.59 6.00392 12.165 6.51492 11.4525Z" fill="black"/>
<line x1="0.704318" y1="25.5968" x2="30.7043" y2="3.5968" stroke="black"/>
</svg>
