<svg width="28" height="30" viewBox="0 0 28 30" fill="none" xmlns="http://www.w3.org/2000/svg">
<path fill-rule="evenodd" clip-rule="evenodd" d="M14 10.3125C12.8397 10.3125 11.7269 10.8064 10.9064 11.6854C10.0859 12.5645 9.625 13.7568 9.625 15C9.625 16.2432 10.0859 17.4355 10.9064 18.3146C11.7269 19.1936 12.8397 19.6875 14 19.6875C15.1603 19.6875 16.2731 19.1936 17.0936 18.3146C17.9141 17.4355 18.375 16.2432 18.375 15C18.375 13.7568 17.9141 12.5645 17.0936 11.6854C16.2731 10.8064 15.1603 10.3125 14 10.3125ZM11.375 15C11.375 14.2541 11.6516 13.5387 12.1438 13.0113C12.6361 12.4838 13.3038 12.1875 14 12.1875C14.6962 12.1875 15.3639 12.4838 15.8562 13.0113C16.3484 13.5387 16.625 14.2541 16.625 15C16.625 15.7459 16.3484 16.4613 15.8562 16.9887C15.3639 17.5162 14.6962 17.8125 14 17.8125C13.3038 17.8125 12.6361 17.5162 12.1438 16.9887C11.6516 16.4613 11.375 15.7459 11.375 15Z" fill="black"/>
<path fill-rule="evenodd" clip-rule="evenodd" d="M13.9999 4.0625C8.73359 4.0625 5.18575 7.4425 3.12659 10.3087L3.09042 10.36C2.62375 11.0088 2.19559 11.605 1.90509 12.31C1.59359 13.0662 1.45825 13.89 1.45825 15C1.45825 16.11 1.59359 16.9338 1.90509 17.69C2.19675 18.395 2.62492 18.9925 3.09042 19.64L3.12775 19.6913C5.18575 22.5575 8.73359 25.9375 13.9999 25.9375C19.2663 25.9375 22.8141 22.5575 24.8733 19.6913L24.9094 19.64C25.3761 18.9925 25.8043 18.395 26.0948 17.69C26.4063 16.9338 26.5416 16.11 26.5416 15C26.5416 13.89 26.4063 13.0662 26.0948 12.31C25.8031 11.605 25.3749 11.0088 24.9094 10.36L24.8721 10.3087C22.8141 7.4425 19.2663 4.0625 13.9999 4.0625ZM4.51492 11.4525C6.41425 8.80625 9.50825 5.9375 13.9999 5.9375C18.4916 5.9375 21.5844 8.80625 23.4849 11.4525C23.9983 12.165 24.2969 12.59 24.4941 13.0675C24.6784 13.515 24.7916 14.0613 24.7916 15C24.7916 15.9387 24.6784 16.485 24.4941 16.9325C24.2969 17.41 23.9971 17.835 23.4861 18.5475C21.5833 21.1938 18.4916 24.0625 13.9999 24.0625C9.50825 24.0625 6.41542 21.1938 4.51492 18.5475C4.00159 17.835 3.70292 17.41 3.50575 16.9325C3.32142 16.485 3.20825 15.9387 3.20825 15C3.20825 14.0613 3.32142 13.515 3.50575 13.0675C3.70292 12.59 4.00392 12.165 4.51492 11.4525Z" fill="black"/>
</svg>
