<svg width="19" height="16" viewBox="0 0 19 16" fill="none" xmlns="http://www.w3.org/2000/svg">
<path d="M10.5836 1.93452L10.5834 1.93475L9.85235 2.65974L9.50027 3.0089L9.14819 2.65974L8.41715 1.93475L8.41657 1.93417C6.71573 0.241841 3.97611 -0.00720265 2.162 1.48049C0.0623883 3.20526 -0.0474244 6.29623 1.82982 8.16423L10.5836 1.93452ZM10.5836 1.93452C12.2885 0.241534 15.0247 -0.00704969 16.8386 1.48056L10.5836 1.93452ZM9.01025 15.2997L1.83004 8.16444L16.8387 1.48063C18.9382 3.20545 19.0479 6.29621 17.1671 8.16413L17.167 8.16423L9.98658 15.2997C9.98655 15.2997 9.98652 15.2998 9.98649 15.2998C9.71764 15.5667 9.2792 15.5667 9.01035 15.2998C9.01032 15.2998 9.01028 15.2997 9.01025 15.2997Z" fill="#FFFDFD" stroke="black"/>
</svg>
