<svg width="19" height="23" viewBox="0 0 19 23" fill="none" xmlns="http://www.w3.org/2000/svg">
<path d="M14.1944 20.2517L13.8252 19.9145L14.1944 20.2517C14.4057 20.0204 14.5176 19.7156 14.5176 19.4063V9.34375C14.5176 9.03437 14.4057 8.72958 14.1944 8.49828L13.8252 8.83552L14.1944 8.49827C13.9817 8.26546 13.683 8.125 13.3609 8.125C13.0388 8.125 12.7402 8.26546 12.5275 8.49828C12.3161 8.72958 12.2043 9.03437 12.2043 9.34375V19.4063C12.2043 19.7156 12.3161 20.0204 12.5275 20.2517C12.7402 20.4845 13.0388 20.625 13.3609 20.625C13.683 20.625 13.9817 20.4845 14.1944 20.2517ZM6.31464 20.2517L5.9455 19.9145L6.31465 20.2517C6.52597 20.0204 6.63783 19.7156 6.63783 19.4063V9.34375C6.63783 9.03437 6.52596 8.72958 6.31465 8.49828L5.9455 8.83552L6.31465 8.49827C6.10195 8.26546 5.80328 8.125 5.48119 8.125C5.15909 8.125 4.86042 8.26546 4.64773 8.49827C4.43641 8.72958 4.32454 9.03437 4.32454 9.34375V19.4063C4.32454 19.7156 4.43641 20.0204 4.64773 20.2517C4.86043 20.4845 5.1591 20.625 5.48119 20.625C5.80328 20.625 6.10194 20.4845 6.31464 20.2517ZM8.5876 8.49827L8.95674 8.83552L8.58759 8.49828C8.37628 8.72958 8.26441 9.03437 8.26441 9.34375V19.4063C8.26441 19.7156 8.37628 20.0204 8.58759 20.2517L8.95674 19.9145L8.5876 20.2517C8.8003 20.4845 9.09897 20.625 9.42106 20.625C9.74314 20.625 10.0418 20.4845 10.2545 20.2517L9.88538 19.9145L10.2545 20.2517C10.4658 20.0204 10.5777 19.7156 10.5777 19.4063V9.34375C10.5777 9.03437 10.4658 8.72958 10.2545 8.49828L9.88538 8.83552L10.2545 8.49827C10.0418 8.26546 9.74315 8.125 9.42106 8.125C9.09897 8.125 8.80029 8.26546 8.5876 8.49827ZM12.5782 1.64617L12.712 1.93751H13.0326H17.9574C17.9837 1.93751 18.019 1.9485 18.0526 1.98527C18.0876 2.02355 18.1141 2.08439 18.1141 2.15626V3.59376C18.1141 3.66562 18.0876 3.72647 18.0526 3.76474C18.019 3.80151 17.9837 3.81251 17.9574 3.81251H0.884672C0.858457 3.81251 0.823087 3.80151 0.789496 3.76474C0.754526 3.72647 0.728027 3.66562 0.728027 3.59376V2.15626C0.728027 2.08439 0.754525 2.02355 0.789496 1.98527C0.823088 1.9485 0.858457 1.93751 0.884672 1.93751H5.80951H6.13009L6.26389 1.64617L6.64966 0.806136L6.64969 0.806147L6.6518 0.801412C6.69621 0.702018 6.76239 0.624833 6.83718 0.573952C6.91141 0.523461 6.99248 0.499671 7.07145 0.500003V0.500008H7.07355L11.7645 0.500008L11.7649 0.500008C11.8452 0.499945 11.9276 0.524222 12.003 0.575277C12.079 0.626707 12.1462 0.704492 12.1917 0.804556L12.1924 0.806136L12.5782 1.64617ZM2.48744 22.0312C2.20618 21.7233 2.04132 21.2969 2.04132 20.8438V6.25001H16.8008V20.8438C16.8008 21.2969 16.6359 21.7233 16.3547 22.0312C16.0748 22.3376 15.7054 22.5 15.3309 22.5H3.51125C3.13673 22.5 2.76732 22.3376 2.48744 22.0312Z" stroke="black"/>
</svg>
