<svg width="18" height="21" viewBox="0 0 18 21" fill="none" xmlns="http://www.w3.org/2000/svg">
<path d="M11.2942 7.19115e-06H6.70179C6.52274 -0.000695428 6.34712 0.0501028 6.19506 0.146582C6.04299 0.243061 5.92062 0.381319 5.84196 0.545515L11.2942 7.19115e-06ZM11.2942 7.19115e-06C11.4736 -0.000124194 11.6496 0.0508642 11.8022 0.147236C11.9548 0.243608 12.078 0.38154 12.158 0.545515M11.2942 7.19115e-06L12.158 0.545515M12.158 0.545515L12.5357 1.31251L12.158 0.545515ZM12.0871 1.53339L12.2246 1.81251H12.5357H17.3571C17.3917 1.81251 17.4269 1.82641 17.4545 1.85461C17.4825 1.88315 17.5 1.92403 17.5 1.96876V3.28126C17.5 3.32599 17.4825 3.36686 17.4545 3.3954C17.4269 3.4236 17.3917 3.43751 17.3571 3.43751H0.642857C0.608335 3.43751 0.57309 3.4236 0.545468 3.3954C0.517503 3.36686 0.5 3.32598 0.5 3.28126V1.96876C0.5 1.92403 0.517503 1.88316 0.545468 1.85461C0.57309 1.82641 0.608335 1.81251 0.642857 1.81251H5.46429H5.77541L5.91285 1.53339L6.29053 0.766395L6.29056 0.766408L6.2929 0.761518C6.33153 0.680877 6.3909 0.614468 6.46292 0.56878C6.53482 0.523158 6.6169 0.499678 6.69982 0.500003V0.500007H6.70179L11.2942 0.500007L11.2946 0.500007C11.3788 0.499945 11.4621 0.523839 11.5352 0.569997C11.6084 0.61622 11.6689 0.68329 11.7087 0.764766L11.7095 0.766395L12.0871 1.53339ZM2.20776 20.0735C1.93868 19.7988 1.78571 19.4241 1.78571 19.0312V5.75H16.2143V19.0312C16.2143 19.4241 16.0613 19.7988 15.7922 20.0735C15.5235 20.3478 15.1612 20.5 14.7857 20.5H3.21429C2.83877 20.5 2.4765 20.3478 2.20776 20.0735ZM12.0454 7.71733C11.8322 7.93492 11.7143 8.22789 11.7143 8.53125V17.7188C11.7143 18.0221 11.8322 18.3151 12.0454 18.5327C12.2589 18.7506 12.5507 18.875 12.8571 18.875C13.1636 18.875 13.4554 18.7506 13.6689 18.5327C13.882 18.3151 14 18.0221 14 17.7188V8.53125C14 8.22789 13.882 7.93492 13.6689 7.71733C13.4554 7.49938 13.1636 7.375 12.8571 7.375C12.5507 7.375 12.2589 7.49938 12.0454 7.71733ZM8.18825 7.71733C7.9751 7.93492 7.85714 8.22789 7.85714 8.53125V17.7188C7.85714 18.0221 7.9751 18.3151 8.18825 18.5327C8.40175 18.7506 8.69353 18.875 9 18.875C9.30647 18.875 9.59825 18.7506 9.81175 18.5327C10.0249 18.3151 10.1429 18.0221 10.1429 17.7188V8.53125C10.1429 8.22789 10.0249 7.93492 9.81175 7.71733C9.59825 7.49938 9.30647 7.375 9 7.375C8.69353 7.375 8.40175 7.49938 8.18825 7.71733ZM4.33111 7.71733C4.11796 7.93492 4 8.22789 4 8.53125V17.7188C4 18.0221 4.11796 18.3151 4.33111 18.5327C4.54461 18.7506 4.83639 18.875 5.14286 18.875C5.44932 18.875 5.74111 18.7506 5.9546 18.5327C6.16776 18.3151 6.28571 18.0221 6.28571 17.7188V8.53125C6.28571 8.22789 6.16776 7.93492 5.9546 7.71733C5.74111 7.49938 5.44933 7.375 5.14286 7.375C4.83639 7.375 4.5446 7.49938 4.33111 7.71733Z" fill="white" stroke="black"/>
</svg>
