<svg width="24" height="25" viewBox="0 0 24 25" fill="none" xmlns="http://www.w3.org/2000/svg">
<path d="M16.9933 16.1089L16.4035 16.9062H17.3953H18.1483C18.304 16.9062 18.4552 16.9699 18.5704 17.0917L23.1742 21.9579C23.1745 21.9582 23.1748 21.9584 23.175 21.9587C23.4237 22.2253 23.4233 22.6666 23.1715 22.9327L21.8641 24.3146L21.8623 24.3165C21.6313 24.5633 21.2626 24.5662 21.0245 24.3146L16.4189 19.4464C16.3026 19.3236 16.2323 19.1503 16.2323 18.96V18.1641V17.1022L15.4138 17.7786C13.8675 19.0565 11.9277 19.8125 9.8193 19.8125C4.81336 19.8125 0.710693 15.5169 0.710693 10.1562C0.710693 4.79557 4.81336 0.5 9.8193 0.5C14.8252 0.5 18.9279 4.79557 18.9279 10.1562C18.9279 12.4065 18.2053 14.4704 16.9933 16.1089ZM3.40631 10.1562C3.40631 13.8632 6.25165 16.9062 9.8193 16.9062C13.3921 16.9062 16.2323 13.8578 16.2323 10.1562C16.2323 6.44929 13.387 3.40625 9.8193 3.40625C6.24654 3.40625 3.40631 6.4547 3.40631 10.1562Z" stroke="black"/>
</svg>
