<svg width="26" height="22" viewBox="0 0 26 22" fill="none" xmlns="http://www.w3.org/2000/svg">
<path d="M19.4985 6.02308C19.4985 9.00238 16.6484 11.5462 12.9673 11.5462C9.2862 11.5462 6.43604 9.00238 6.43604 6.02308C6.43604 3.04378 9.2862 0.5 12.9673 0.5C16.6484 0.5 19.4985 3.04378 19.4985 6.02308ZM12.9673 14.5538C14.2658 14.5538 15.5025 14.3122 16.6204 13.8846H19.2173C22.4687 13.8846 24.9673 16.1272 24.9673 18.7385V19.4077C24.9673 20.1702 24.2167 20.9154 23.1235 20.9154H2.81104C1.71784 20.9154 0.967285 20.1702 0.967285 19.4077V18.7385C0.967285 16.1272 3.46588 13.8846 6.71729 13.8846H9.31449C10.4361 14.312 11.6682 14.5538 12.9673 14.5538Z" stroke="black"/>
</svg>
