<svg width="25" height="24" viewBox="0 0 25 24" fill="none" xmlns="http://www.w3.org/2000/svg">
<path d="M19.0312 6.75C19.0312 10.1814 16.1251 13 12.5 13C8.87487 13 5.96875 10.1814 5.96875 6.75C5.96875 3.31862 8.87487 0.5 12.5 0.5C16.1251 0.5 19.0312 3.31862 19.0312 6.75ZM12.5 16.25C13.8033 16.25 15.0435 15.9788 16.1634 15.5H18.75C21.9454 15.5 24.5 17.9811 24.5 21V21.75C24.5 22.697 23.6935 23.5 22.6562 23.5L2.34375 23.5C1.30651 23.5 0.5 22.697 0.5 21.75L0.5 21C0.5 17.9811 3.05456 15.5 6.25 15.5L8.83696 15.5C9.96044 15.9785 11.196 16.25 12.5 16.25Z" fill="#FFFDFD" stroke="black"/>
</svg>
